<?xml version="1.0"?>
<svg width="1081" height="840.51" xmlns="http://www.w3.org/2000/svg" xmlns:svg="http://www.w3.org/2000/svg" xmlns:se="http://svg-edit.googlecode.com" data-name="Layer 1">
 <title>awards</title>

 <g class="layer">
  <title>Layer 1</title>
  <path d="m979.66,686.32c-10.16,-10.81 -33.67,-20.07 -65.16,-26.2l0,-139.32l-1.44,0l0,-1.44l-26,0l0,1.44l-40.85,0c3.66,-21.08 15.87,-94.58 13.41,-124.1c0,0 31.74,-86.57 5.77,-158.72c0,0 26,5.77 28.86,-23.09c2.33,-23.3 29.08,-74.78 -1.64,-104.4c-7.21,-7.56 -17.93,-13.81 -33.41,-18l-7.51,-21c4.9,-7.75 7.93,-18.21 7.93,-29.74c0,-15.53 -5.46,-29.14 -13.64,-36.78c-4.71,-5 -10.46,-8 -16.67,-8a21.38,21.38 0 0 0 -13,4.66c0.54,0.41 1.06,0.85 1.58,1.31c-9.49,7.09 -16,21.78 -16,38.76c0,12.85 3.75,24.36 9.68,32.29l-3.91,25.43s-80.8,-20.17 -46.16,115.47c0,0 8.66,23.09 23.09,23.09c0,0 -8.66,103.89 5.77,141.41c0,0 -5.77,92.35 5.78,112.55l0,28.86l-72.16,0l0,142.9c-36.94,8.46 -60.61,21.45 -60.61,36c0,25.51 72.36,46.18 161.62,46.18s161.61,-20.63 161.61,-46.15c0,-4.66 -2.44,-9.16 -6.94,-13.41z" fill="#919eab" id="svg_1"/>
  <path d="m410.92,703.46c-9.43,-10.06 -31.33,-18.67 -60.68,-24.38l0,-129.65l-1.34,0l0,-1.34l-24.17,0l0,1.34l-38,0c3.41,-19.61 14.77,-88 12.48,-115.48c0,0 29.54,-80.57 5.37,-147.71c0,0 24.17,5.37 26.86,-21.48c2.17,-21.68 27.06,-69.59 -1.53,-97.15c-6.71,-7 -16.68,-12.85 -31.08,-16.73l-7,-19.58c4.57,-7.22 7.38,-16.94 7.38,-27.68c0,-14.45 -5.07,-27.11 -12.69,-34.22c-4.38,-4.66 -9.73,-7.4 -15.51,-7.4a19.86,19.86 0 0 0 -12.08,4.34c0.5,0.38 1,0.79 1.47,1.21c-8.83,6.6 -14.9,20.27 -14.9,36.07c0,12 3.5,22.67 9,30l-3.64,23.66s-75.19,-18.8 -43,107.43c0,0 8.06,21.48 21.49,21.48c0,0 -8.06,96.68 5.37,131.6c0,0 -5.37,85.94 5.37,104.74l0,26.85l-67.1,0l0,133c-34.37,7.87 -56.4,20 -56.4,33.53c0,23.73 67.34,43 150.4,43s150.39,-19.24 150.39,-43c0,-4.31 -2.27,-8.5 -6.46,-12.45z" fill="#919eab" id="svg_2"/>
  <path d="m632.19,696.69c-7,-7.5 -23.34,-13.91 -45.2,-18.16l0,-96.56l-1,0l0,-1l-18,0l0,1l-28.3,0c2.54,-14.61 11,-65.56 9.3,-86c0,0 22,-60 4,-110c0,0 18,4 20,-16c1.62,-16.15 20.16,-51.83 -1.14,-72.36c-5,-5.24 -12.42,-9.57 -23.15,-12.46l-5.2,-14.61a39,39 0 0 0 5.5,-20.62c0,-10.76 -3.78,-20.19 -9.46,-25.49c-3.26,-3.47 -7.24,-5.51 -11.54,-5.51a14.8,14.8 0 0 0 -9,3.24c0.38,0.28 0.74,0.58 1.1,0.9c-6.58,4.91 -11.1,15.09 -11.1,26.86c0,8.91 2.61,16.89 6.72,22.38l-2.72,17.63s-56,-14 -32,80c0,0 6,16 16,16c0,0 -6,72 4,98c0,0 -4,64 4,78l0,20l-50,0l0,99c-25.6,5.86 -42,14.87 -42,25c0,17.68 50.15,32 112,32s112,-14.33 112,-32c0,-3.18 -1.69,-6.3 -4.81,-9.24z" fill="#919eab" id="svg_3"/>
  <path d="m1040.16,712.07c-4.14,-4.42 -13.75,-8.2 -26.63,-10.71l0,-56.9l-0.59,0l0,-0.59l-10.61,0l0,0.59l-16.68,0c1.5,-8.61 6.49,-38.64 5.48,-50.69c0,0 13,-35.37 2.36,-64.84c0,0 10.61,2.36 11.79,-9.43c1,-9.51 11.88,-30.54 -0.67,-42.64c-2.95,-3.09 -7.33,-5.64 -13.65,-7.34l-3.07,-8.6a22.9,22.9 0 0 0 3.24,-12.15c0,-6.34 -2.23,-11.9 -5.57,-15a9.35,9.35 0 0 0 -6.81,-3.25a8.74,8.74 0 0 0 -5.3,1.91a7.81,7.81 0 0 1 0.64,0.53c-3.87,2.89 -6.53,8.89 -6.53,15.83a22.28,22.28 0 0 0 4,13.19l-1.6,10.39s-33,-8.25 -18.86,47.15c0,0 3.54,9.43 9.43,9.43c0,0 -3.53,42.44 2.36,57.76c0,0 -2.36,37.73 2.36,46l0,11.79l-29.52,0l0,58.37c-15.09,3.45 -24.76,8.76 -24.76,14.71c0,10.42 29.56,18.87 66,18.87s66,-8.45 66,-18.87c0.03,-1.94 -0.97,-3.78 -2.81,-5.51z" fill="#919eab" id="svg_4"/>
  <path d="m180.16,714.07c-4.14,-4.42 -13.75,-8.2 -26.63,-10.71l0,-56.9l-0.59,0l0,-0.59l-10.61,0l0,0.59l-16.68,0c1.5,-8.61 6.49,-38.64 5.48,-50.69c0,0 13,-35.37 2.36,-64.84c0,0 10.61,2.36 11.79,-9.43c0.95,-9.51 11.88,-30.54 -0.67,-42.64c-3,-3.09 -7.33,-5.64 -13.65,-7.34l-3.07,-8.6a22.9,22.9 0 0 0 3.24,-12.15c0,-6.34 -2.23,-11.9 -5.57,-15a9.35,9.35 0 0 0 -6.81,-3.25a8.74,8.74 0 0 0 -5.3,1.91a7.81,7.81 0 0 1 0.64,0.53c-3.87,2.89 -6.53,8.89 -6.53,15.83a22.28,22.28 0 0 0 3.94,13.17l-1.6,10.39s-33,-8.25 -18.86,47.15c0,0 3.54,9.43 9.43,9.43c0,0 -3.53,42.44 2.36,57.76c0,0 -2.36,37.73 2.36,46l0,11.79l-29.46,0l0,58.37c-15.09,3.45 -24.76,8.76 -24.76,14.71c0,10.42 29.56,18.87 66,18.87s66,-8.45 66,-18.87c0.03,-1.92 -0.97,-3.76 -2.81,-5.49z" fill="#919eab" id="svg_5"/>
  <path d="m59.5,748.13l1081,0s-40,108.72 -142.47,70s-163.71,7.5 -219.95,28.74s-168.71,37.5 -197.45,5s-55,-47.49 -156.21,-35s-167.47,38.74 -180,3.75s-15,-46.24 -86.23,-40s-98.69,-32.49 -98.69,-32.49z" fill="#2f2e41" id="svg_6" transform="translate(-59.5 -29.75)"/>
  <path d="m694.24,399.7c-12.14,20.64 -14,45.48 -18.09,69.06c-6.42,36.54 -19,71.78 -25.34,108.34c-2.21,12.79 -3.64,25.76 -7.15,38.25c-4.82,17.16 -13.42,33 -21.49,48.85c-13.74,27.08 -26.21,55.24 -31.34,85.17c-1.6,9.33 -0.35,22 8.89,24c2.64,0.59 5.61,0.12 7.86,1.62c1.32,0.87 2.16,2.28 3.22,3.45c4.06,4.48 11.05,5 16.85,3.37s10.86,-5.21 16.24,-8c21.36,-11 46.68,-9.69 70.64,-8.13c4.41,0.28 9.36,0.83 12.15,4.27c1.41,1.75 2,4 3.05,6c3.72,7.25 13.54,10.62 20.92,7.18c2.76,-1.29 5.13,-3.36 8,-4.42c8.77,-3.27 18,3.82 27.39,3.87c13.5,0.06 23.66,-14.24 37.15,-14.73c9.2,-0.33 17.61,5.94 26.81,6c6.9,0 13.26,-3.48 19.26,-6.87l41,-23.16a170.64,170.64 0 0 0 -39.73,-39.68c-11.29,-8 -14.34,-24 -21.23,-36c-4.55,-7.94 -9.15,-16 -11.37,-24.87c-1.6,-6.4 -1.92,-13.06 -3.5,-19.47c-2.19,-8.84 -6.7,-16.89 -10.28,-25.26c-14.2,-33.16 -13.72,-71 -26.73,-104.65c-3.66,-9.48 -8.37,-18.55 -11.62,-28.18c-4.28,-12.68 -5.95,-26.12 -10.27,-38.78s-12,-25.09 -24.25,-30.54a48.75,48.75 0 0 0 -16.72,-3.63c-14.31,-0.92 -27.04,1.54 -40.32,6.94z" fill="#3f3d56" id="svg_7" transform="translate(-59.5 -29.75)"/>
  <rect fill="#fbc661" height="76.06" id="svg_8" width="57.04" x="631.06" y="201.78"/>
  <path d="m746.06,290.53c-2.9,-0.45 -5.86,0 -8.79,0c-7.21,-0.09 -9.26,8.62 -16.45,9.33c-8.77,0.86 -20.93,-4.69 -28.26,0.21a28.39,28.39 0 0 1 -4.24,2.44c-6,2.64 -13.33,1.66 -18.82,5.25s-7.5,10.68 -7.5,17.24a17.38,17.38 0 0 0 1,6.91c0.77,1.87 2.05,3.49 2.82,5.36c0.54,1.32 0.82,2.73 1.27,4.09a33.48,33.48 0 0 0 5,8.64l12.7,17.67c3.33,4.64 2,10.38 2.54,16.07c0.4,4.37 1.42,8.69 1.41,13.07s-1.21,9 -4.48,12q11.28,-0.69 22.49,-2.07c6.16,-0.76 12.3,-1.67 18.49,-2.11c13,-0.92 26.06,0.27 39,1.46c-2.14,-2.66 -3.11,-6.37 -3.64,-9.74c-1.76,-11.18 -2.87,-22.89 0.81,-33.59a79.28,79.28 0 0 1 4.15,-9.34l3.95,-7.95c5.59,-11.24 10.81,-22.76 12,-35.26a19,19 0 0 0 -1.11,-9.5c-1.73,-3.87 -5.47,-6.59 -9.5,-7.91a33.39,33.39 0 0 0 -12.6,-1.1c-3.94,0.19 -8.3,-0.57 -12.24,-1.17z" fill="#3f3d56" id="svg_9" transform="translate(-59.5 -29.75)"/>
  <path d="m705,285.27c0.91,2.38 2,4.93 1.29,7.39c-1.32,4.88 -8.06,5.87 -11,10a2.13,2.13 0 0 0 -0.45,2.11a2.32,2.32 0 0 0 0.54,0.63c5.49,4.78 13.43,5.19 20.71,5.11c10.61,-0.1 21.94,-1 30.35,-7.43c2.35,-1.8 4.56,-4.8 3.36,-7.51c-0.93,-2.07 -3.38,-2.85 -5.41,-3.87c-4.55,-2.29 -7.81,-6.65 -9.61,-11.42s-2.26,-9.92 -2.34,-15a4.25,4.25 0 0 0 -0.54,-2.5c-0.7,-1 -2,-1.15 -3.23,-1.23a96.57,96.57 0 0 0 -20.53,0.82c-1.92,0.28 -5.58,0.54 -6.93,2.11s-0.57,3.43 -0.31,5.14a76.79,76.79 0 0 0 4.1,15.65z" fill="#fbb3b2" id="svg_10" transform="translate(-59.5 -29.75)"/>
  <path d="m705,285.27c0.91,2.38 2,4.93 1.29,7.39c-1.32,4.88 -8.06,5.87 -11,10a2.13,2.13 0 0 0 -0.45,2.11a2.32,2.32 0 0 0 0.54,0.63c5.49,4.78 13.43,5.19 20.71,5.11c10.61,-0.1 21.94,-1 30.35,-7.43c2.35,-1.8 4.56,-4.8 3.36,-7.51c-0.93,-2.07 -3.38,-2.85 -5.41,-3.87c-4.55,-2.29 -7.81,-6.65 -9.61,-11.42s-2.26,-9.92 -2.34,-15a4.25,4.25 0 0 0 -0.54,-2.5c-0.7,-1 -2,-1.15 -3.23,-1.23a96.57,96.57 0 0 0 -20.53,0.82c-1.92,0.28 -5.58,0.54 -6.93,2.11s-0.57,3.43 -0.31,5.14a76.79,76.79 0 0 0 4.1,15.65z" id="svg_11" opacity="0.05" transform="translate(-59.5 -29.75)"/>
  <circle cx="658.41" cy="220.21" fill="#fbb3b2" id="svg_12" r="25.61"/>
  <path d="m742.33,778.75a35.36,35.36 0 0 0 -5.79,3.22a16.45,16.45 0 0 0 15.28,1.2c1.94,-0.91 3.68,-2.2 5.54,-3.25c-5.12,-1.6 -10.15,-2.99 -15.03,-1.17z" id="svg_13" opacity="0.1" transform="translate(-59.5 -29.75)"/>
  <path d="m627.59,773.86c-4.33,2.22 -8.46,4.93 -12.93,6.78c4.06,2.42 9.49,2.53 14.16,1.18c5.8,-1.69 10.86,-5.21 16.23,-8c11.72,-6 24.64,-8.35 37.86,-9c-19.16,-0.64 -38.47,0.38 -55.32,9.04z" id="svg_14" opacity="0.1" transform="translate(-59.5 -29.75)"/>
  <path d="m871.68,704.13c-11.29,-8 -14.33,-24 -21.23,-36c-4.55,-7.94 -9.15,-16 -11.37,-24.87c-1.6,-6.4 -1.92,-13.06 -3.5,-19.47c-2.18,-8.84 -6.69,-16.89 -10.27,-25.26c-14.2,-33.16 -13.73,-71 -26.73,-104.65c-3.67,-9.48 -8.38,-18.55 -11.63,-28.18c-4.27,-12.68 -6,-26.12 -10.27,-38.78s-12,-25.09 -24.25,-30.54c-5.23,-2.34 -11,-3.25 -16.72,-3.63a87,87 0 0 0 -14.48,0.25a44.88,44.88 0 0 1 13.77,3.4c12.22,5.45 19.93,17.88 24.25,30.54s6,26.1 10.27,38.78c3.25,9.63 8,18.7 11.62,28.18c13,33.65 12.53,71.49 26.73,104.65c3.59,8.37 8.1,16.42 10.28,25.26c1.58,6.41 1.9,13.07 3.5,19.47c2.22,8.87 6.82,16.93 11.37,24.87c6.89,12 9.94,27.94 21.23,36a170.64,170.64 0 0 1 39.75,39.66l-41,23.16a70.8,70.8 0 0 1 -10.75,5.26a30.3,30.3 0 0 0 9,1.61c6.89,0 13.25,-3.48 19.25,-6.87l41,-23.16a170.45,170.45 0 0 0 -39.82,-39.68z" id="svg_15" opacity="0.1" transform="translate(-59.5 -29.75)"/>
  <path d="m806.87,767.89c-10.57,0.38 -19.1,9.25 -28.8,13a32.66,32.66 0 0 0 9.11,1.69c10.86,0 19.56,-9.19 29.57,-13.06a29.38,29.38 0 0 0 -9.88,-1.63z" id="svg_16" opacity="0.1" transform="translate(-59.5 -29.75)"/>
  <path d="m716.36,396.51l0,-18.89l-9.17,0c0.49,-2.83 2.13,-12.72 1.8,-16.69c0,0 4.27,-11.64 0.78,-21.34a3.14,3.14 0 0 0 3.88,-3.1c0.38,-3.88 5.82,-13.58 -4.66,-16.3l-1.07,-3a7.52,7.52 0 0 0 1.07,-4c0,-3.21 -1.74,-5.82 -3.88,-5.82s-3.88,2.61 -3.88,5.82a7.34,7.34 0 0 0 1.3,4.35l-0.53,3.46s-10.86,-2.72 -6.2,15.52c0,0 1.16,3.1 3.1,3.1c0,0 -1.16,14 0.78,19c0,0 -0.78,12.41 0.77,15.13l0,3.88l-9.7,0l0,19.21c-5,1.14 -8.15,2.89 -8.15,4.85c0,3.43 9.73,6.21 21.73,6.21s21.73,-2.78 21.73,-6.21c0,-2.17 -3.85,-4.07 -9.7,-5.18z" fill="#50b83c" id="svg_17" transform="translate(-59.5 -29.75)"/>
  <path d="m705.3,313a7.55,7.55 0 0 1 -1.06,4l1.06,3c10.48,2.71 5.05,12.41 4.66,16.29a3.15,3.15 0 0 1 -3.88,3.11c3.49,9.7 -0.78,21.34 -0.78,21.34c0.33,4 -1.31,13.85 -1.8,16.69l3.5,0c0.49,-2.84 2.14,-12.72 1.81,-16.69c0,0 4.26,-11.64 0.77,-21.34a3.15,3.15 0 0 0 3.88,-3.11c0.39,-3.88 5.82,-13.58 -4.65,-16.29l-1.07,-3a7.55,7.55 0 0 0 1.07,-4c0,-3.21 -1.74,-5.82 -3.88,-5.82a2.87,2.87 0 0 0 -1.75,0.63a6.57,6.57 0 0 1 2.12,5.19z" id="svg_18" opacity="0.1" transform="translate(-59.5 -29.75)"/>
  <path d="m716.17,396.31l0,-18.88l-3.49,0l0,18.88c5.84,1.12 9.7,3 9.7,5.17c0,3.27 -8.8,5.94 -20,6.19l1.75,0c12,0 21.73,-2.78 21.73,-6.21c0.01,-2.13 -3.86,-4.03 -9.69,-5.15z" id="svg_19" opacity="0.1" transform="translate(-59.5 -29.75)"/>
  <path d="m726.54,214c-8,-2 -16.6,-3.53 -24.22,-0.46a34.63,34.63 0 0 0 -9.52,6.27c-2.59,2.25 -5.11,4.74 -6.49,7.89c-1.65,3.8 -1.46,8.1 -1.56,12.24s-0.65,8.58 -3.4,11.67c-1.07,1.2 -2.46,2.18 -3.15,3.64c-1,2 -0.34,4.47 0.64,6.5s2.29,3.95 2.74,6.17c0.61,3.07 -0.58,6.25 -2.27,8.89s-3.89,4.92 -5.64,7.53s-3.11,6.35 -1.52,9.22c1,1.85 3.06,3 4.1,4.82c0.5,0.87 0.75,1.88 1.28,2.73c1.47,2.33 4.56,2.9 7.29,3.18c4.37,0.46 9.24,0.6 12.63,-2.2c2.33,-1.92 3.51,-4.91 4.08,-7.88s0.59,-6 1.12,-9c0.38,-2.14 1,-4.28 0.82,-6.44c-0.25,-2.88 -1.92,-5.41 -3.23,-8a21.86,21.86 0 0 1 -2.66,-11.77c0.39,-4.06 2.53,-8.07 6.11,-10c2.52,-1.39 5.63,-1.74 7.77,-3.66c3.39,-3 2.88,-8.32 3.49,-12.81a6.11,6.11 0 0 1 0.95,-2.81c1.06,-1.44 3,-1.83 4.8,-2c4.19,-0.36 8.64,0.09 12.15,2.42a15.71,15.71 0 0 1 6.3,9.68a27.72,27.72 0 0 1 -0.21,11.75c0.14,-1.69 2.74,-2.15 3.94,-1s1.26,3.13 0.92,4.79c-1.4,7 -7.74,12 -9.87,18.8a17,17 0 0 0 3.66,16.3a4.63,4.63 0 0 0 2,1.42a8.56,8.56 0 0 0 2.43,0.12c3.19,0 5.93,2.19 8.36,4.27s5,4.31 8.24,4.56s6.73,-2.67 5.77,-5.72a6.18,6.18 0 0 0 -1.63,-2.38c-2,-2.06 -4.62,-3.68 -6,-6.2c-2.41,-4.23 -0.94,-9.52 0.58,-14.15s3,-9.93 0.53,-14.14c-1.16,-2 -3.1,-3.5 -4,-5.62a10.58,10.58 0 0 1 -0.77,-3.86c-0.21,-4.84 1,-9.77 0,-14.49a17.7,17.7 0 0 0 -8.33,-10.88a24.07,24.07 0 0 0 -6.68,-2.79c-0.91,-0.23 -2.29,-0.18 -2.93,-0.86s-0.86,-1.89 -1.67,-2.65c-1.96,-1.68 -4.56,-2.5 -6.95,-3.09z" fill="#fbc661" id="svg_20" transform="translate(-59.5 -29.75)"/>
  <path d="m742.88,245.19a2.7,2.7 0 0 0 -3.19,-0.26a32.78,32.78 0 0 1 -0.69,6.32c0.44,-1.41 2.76,-1.73 3.88,-0.63a3.38,3.38 0 0 1 0.57,0.75a13.46,13.46 0 0 0 0.35,-1.39c0.34,-1.66 0.29,-3.6 -0.92,-4.79z" id="svg_21" opacity="0.05" transform="translate(-59.5 -29.75)"/>
  <path d="m753,243.38a11.69,11.69 0 0 0 0.09,1.19a49.33,49.33 0 0 0 0.19,-8.23a63.74,63.74 0 0 0 -0.28,7.04z" id="svg_22" opacity="0.05" transform="translate(-59.5 -29.75)"/>
  <path d="m739,251.25a1.91,1.91 0 0 0 -0.06,0.33l0.06,-0.33z" id="svg_23" opacity="0.05" transform="translate(-59.5 -29.75)"/>
  <path d="m755.67,278.46a42.46,42.46 0 0 1 1.6,-6c1.21,-3.66 2.37,-7.75 1.58,-11.39a39.89,39.89 0 0 1 -1.58,6c-1.21,3.62 -2.39,7.73 -1.6,11.39z" id="svg_24" opacity="0.05" transform="translate(-59.5 -29.75)"/>
  <path d="m739.15,239.83a21.71,21.71 0 0 1 0.4,2.37a24.32,24.32 0 0 0 -0.4,-7.8a15.7,15.7 0 0 0 -6.3,-9.69c-3.51,-2.32 -8,-2.78 -12.15,-2.42c-1.78,0.16 -3.74,0.55 -4.8,2a6.07,6.07 0 0 0 -0.95,2.8c-0.61,4.5 -0.1,9.79 -3.49,12.81c-2.14,1.93 -5.25,2.28 -7.77,3.67c-3.58,2 -5.72,6 -6.11,10a17.43,17.43 0 0 0 0.16,4.33a12.53,12.53 0 0 1 6,-8.94c2.52,-1.39 5.63,-1.74 7.77,-3.66c3.39,-3 2.88,-8.32 3.49,-12.81a6.11,6.11 0 0 1 0.95,-2.81c1.06,-1.44 3,-1.83 4.8,-2c4.19,-0.36 8.64,0.09 12.15,2.42a15.71,15.71 0 0 1 6.25,9.73z" id="svg_25" opacity="0.05" transform="translate(-59.5 -29.75)"/>
  <path d="m763.38,293.48a6.07,6.07 0 0 1 -4.78,2c-3.19,-0.25 -5.82,-2.48 -8.24,-4.56s-5.17,-4.23 -8.36,-4.27a8.94,8.94 0 0 1 -2.43,-0.12a4.72,4.72 0 0 1 -2,-1.42a16.76,16.76 0 0 1 -4.18,-8.71a17,17 0 0 0 4.18,14.14a4.63,4.63 0 0 0 2,1.42a8.56,8.56 0 0 0 2.43,0.12c3.19,0 5.93,2.19 8.36,4.27s5,4.31 8.24,4.56s6.73,-2.67 5.77,-5.72a4.94,4.94 0 0 0 -0.99,-1.71z" id="svg_26" opacity="0.05" transform="translate(-59.5 -29.75)"/>
  <path d="m681.34,267a9.69,9.69 0 0 0 0.24,-4.51c-0.45,-2.21 -1.77,-4.13 -2.74,-6.16q-0.3,-0.62 -0.54,-1.26c0,0.06 -0.07,0.12 -0.1,0.19c-1,2 -0.34,4.47 0.64,6.5a41.8,41.8 0 0 1 2.5,5.24z" id="svg_27" opacity="0.05" transform="translate(-59.5 -29.75)"/>
  <path d="m703.18,277.14c-0.17,0.89 -0.37,1.77 -0.53,2.66c-0.53,3 -0.56,6 -1.12,9s-1.75,6 -4.08,7.88c-3.39,2.79 -8.26,2.66 -12.63,2.2c-2.73,-0.28 -5.82,-0.86 -7.29,-3.18c-0.53,-0.86 -0.78,-1.86 -1.28,-2.74c-1,-1.84 -3.07,-3 -4.1,-4.82c-0.07,-0.12 -0.13,-0.26 -0.19,-0.39a7.12,7.12 0 0 0 0.19,5.83c1,1.85 3.06,3 4.1,4.82c0.5,0.87 0.75,1.88 1.28,2.73c1.47,2.33 4.56,2.9 7.29,3.18c4.37,0.46 9.24,0.6 12.63,-2.2c2.33,-1.92 3.51,-4.91 4.08,-7.88s0.59,-6 1.12,-9c0.38,-2.14 1,-4.28 0.82,-6.44a10,10 0 0 0 -0.29,-1.65z" id="svg_28" opacity="0.05" transform="translate(-59.5 -29.75)"/>
  <path d="m665.92,315.14s-5,2.72 -8.15,27.94s-4.66,52 -4.66,52s0,22.51 21.34,23.28c0,0 8.54,1.56 11.26,3.5s45.4,-11.26 25.22,-14s-27.55,-1.56 -27.55,-1.56s-10.87,-7 -10.87,-13.58s10.87,-45.72 10.87,-45.72l-17.46,-31.86z" fill="#fbb3b2" id="svg_29" transform="translate(-59.5 -29.75)"/>
  <path d="m665.84,334.92c0.54,1.32 0.82,2.73 1.27,4.09a33.31,33.31 0 0 0 5,8.64c2.54,3.54 6.62,11.88 9.15,15.42a59.14,59.14 0 0 1 6.6,-14.75l-21.92,-35.5s-1.72,0.92 -3.77,6.7c-0.11,1.05 -0.17,2.1 -0.18,3.13a17.38,17.38 0 0 0 1,6.91c0.8,1.87 2.08,3.49 2.85,5.36z" fill="#3f3d56" id="svg_30" transform="translate(-59.5 -29.75)"/>
  <path d="m741,263a1.16,1.16 0 0 0 -0.77,-1.09l0,-1.31a1.15,1.15 0 0 0 0.77,-1.09a1.17,1.17 0 1 0 -1.55,1.09l0,1.31a1.16,1.16 0 0 0 0,2.19l0,1.3a1.16,1.16 0 0 0 0,2.19l0,1.31a1.16,1.16 0 1 0 0.78,0l0,-1.31a1.16,1.16 0 0 0 0,-2.19l0,-1.3a1.16,1.16 0 0 0 0.77,-1.1z" fill="#eeeff3" id="svg_31" transform="translate(-59.5 -29.75)"/>
  <path d="m778.45,299.62a108.49,108.49 0 0 1 12.8,32.21c3.88,18.24 6.6,22.12 6.6,22.12s17.08,43.46 -1.94,46.18s-52.38,0 -52.38,0s-67.52,11.64 -43.85,-3.88s42.32,-13.59 42.32,-13.59s28.33,-0.77 32.21,-3.49l7.37,-0.77l-17.46,-49.67l14.33,-29.11z" fill="#fbb3b2" id="svg_32" transform="translate(-59.5 -29.75)"/>
  <path d="m760.41,328.14l8.14,19c5.5,-11.09 11.83,-24.68 13,-37a48.83,48.83 0 0 0 -0.15,-6.84a19.75,19.75 0 0 0 -3.49,-5.05l-17.5,29.89z" fill="#3f3d56" id="svg_33" transform="translate(-59.5 -29.75)"/>
  <path d="m494.47,547s-19.63,40.86 -6,55.28s22.84,-56.88 22.84,-56.88l-16.84,1.6z" fill="#a0616a" id="svg_34" transform="translate(-59.5 -29.75)"/>
  <path d="m399.52,738.08l-22,27.64s-44.47,17.63 -3.61,20c0,0 20,-1.6 24,-4.41s6.41,-8.41 14.42,-5.2s17.23,-3.21 17.23,-3.21s1.2,-31.25 -6.81,-34.85s-23.23,0.03 -23.23,0.03z" fill="#36344a" id="svg_35" transform="translate(-59.5 -29.75)"/>
  <path d="m481.65,748.09l-5.21,22.84s-11.62,27.24 5.21,23.23s25.24,-8.41 26.84,-16.42s6,-16.83 6,-16.83s-4.81,-12.42 -9.21,-12.82s-23.63,0 -23.63,0z" fill="#36344a" id="svg_36" transform="translate(-59.5 -29.75)"/>
  <path d="m374.28,472.06s-14.42,99 -4.4,153s22,109.37 22,109.37s-14,32 34,10.82c0,0 -3.2,-79.33 -12.82,-110.17s4.94,-72.48 8.94,-73.68c0,0 16,80.53 31.65,107s24.35,88.11 24.35,88.11s33.66,4.4 33.26,-4.41s-6.41,-83.33 -26,-109.77c0,0 -16.83,-44.07 -6,-89.74s-11.62,-61.3 -11.62,-61.3l-35.64,-42.06l-35.65,-8l-22.07,30.83z" fill="#3f3d56" id="svg_37" transform="translate(-59.5 -29.75)"/>
  <path d="m480,301.5a11.35,11.35 0 0 1 -1.79,3.62a10.36,10.36 0 0 1 -2.92,2.19a56,56 0 0 1 -11.11,4.77c-1,2 0.62,4.25 2.16,5.87l4.52,4.78c2.64,2.78 5.28,5.56 8.13,8.12a70.76,70.76 0 0 0 18.53,12c3.54,1.57 8.11,2.69 10.95,0.06s2.13,-7.25 3.85,-10.68a1.93,1.93 0 0 0 -0.33,-3.06c-2.32,-2.29 -2.79,-5.91 -2.3,-9.13s1.8,-6.26 2.55,-9.43s0.89,-6.71 -0.8,-9.5a13.14,13.14 0 0 0 -3.78,-3.72a35,35 0 0 0 -10.82,-5.16c-2,-0.55 -4,-0.92 -6,-1.51c-1.24,-0.38 -4.6,-2.7 -5.66,-2.51c-2.18,0.36 -4.41,10.96 -5.18,13.29z" fill="#a0616a" id="svg_38" transform="translate(-59.5 -29.75)"/>
  <path d="m480,301.5a11.35,11.35 0 0 1 -1.79,3.62a10.36,10.36 0 0 1 -2.92,2.19a56,56 0 0 1 -11.11,4.77c-1,2 0.62,4.25 2.16,5.87l4.52,4.78c2.64,2.78 5.28,5.56 8.13,8.12a70.76,70.76 0 0 0 18.53,12c3.54,1.57 8.11,2.69 10.95,0.06s2.13,-7.25 3.85,-10.68a1.93,1.93 0 0 0 -0.33,-3.06c-2.32,-2.29 -2.79,-5.91 -2.3,-9.13s1.8,-6.26 2.55,-9.43s0.89,-6.71 -0.8,-9.5a13.14,13.14 0 0 0 -3.78,-3.72a35,35 0 0 0 -10.82,-5.16c-2,-0.55 -4,-0.92 -6,-1.51c-1.24,-0.38 -4.6,-2.7 -5.66,-2.51c-2.18,0.36 -4.41,10.96 -5.18,13.29z" id="svg_39" opacity="0.1" transform="translate(-59.5 -29.75)"/>
  <path d="m475.51,308.69c-0.05,-0.79 -0.14,-1.71 -0.81,-2.14a2.25,2.25 0 0 0 -1.28,-0.27c-9.46,0 -17.13,7.44 -23.08,14.78c-12.54,15.45 -22.43,32.89 -31,50.86c-5.27,11.07 -10.16,23.52 -6.77,35.31a36.25,36.25 0 0 0 4.73,9.83a53.81,53.81 0 0 0 10.24,11.53a11.49,11.49 0 0 0 5.32,2.9c3,0.48 5.85,-1.17 8.41,-2.76q7.71,-4.8 15.35,-9.7c8.27,-5.3 16.54,-10.69 23.83,-17.27s13.62,-14.44 17.21,-23.58c1.53,-3.88 2.55,-8 4.27,-11.76c2.62,-5.79 6.85,-10.9 8.35,-17.08c0.71,-2.95 0.77,-6 1.53,-8.95c0.6,-2.35 1.64,-4.57 2.14,-6.94s0.38,-5 -1.13,-6.94c-2.54,-3.22 -7.48,-2.74 -11.5,-1.91c-5.24,1.08 -14.58,3.74 -19.57,0.57c-4.27,-2.73 -5.94,-11.84 -6.24,-16.48z" fill="#eeeff3" id="svg_40" transform="translate(-59.5 -29.75)"/>
  <path d="m472.84,327.84l-5.61,0.4l-4,-1.61l3.21,-9.61s11.3,1.28 12.46,4.84c0,0 0.84,2.45 2.2,2.81s7,-0.44 8.17,2.36s0.8,18 -6.81,16l-3.6,-9.62l-1.61,-2.4s-4.81,-0.77 -4.41,-3.17z" fill="#3f3d56" id="svg_41" transform="translate(-59.5 -29.75)"/>
  <path d="m426.76,417.18s12.42,-81.73 51.28,-111c0,0 0.4,-7.61 -6.41,-6.81s-35.25,-4.81 -35.25,-4.81l-26.84,52.09s-6,48.47 -10.42,56.48s-32.05,71.72 -32.05,71.72s15.63,52.48 38.86,-18c0,0 -18,57.29 32.85,62.9s44.87,-3.21 44.87,-3.21l6,-41.66l0,-31.26l11.22,-22l45.67,-58.09s-31,-42.92 -36.92,-39.09c0.01,-0.04 -38.39,60.69 -82.86,92.74z" fill="#3f3d56" id="svg_42" transform="translate(-59.5 -29.75)"/>
  <path d="m442.39,297.79l-6,-3.21s-18.43,6.81 -24.84,33.26c0,0 -15.62,11.21 -26,19.63c0,0 -14,-26 -14,-34.86c0,0 -23.24,15.63 -28.45,11.62c0,0 14,64.5 40.47,59.69s36.43,-20.43 36.43,-20.43l22.39,-65.7z" fill="#3f3d56" id="svg_43" transform="translate(-59.5 -29.75)"/>
  <path d="m531.33,365.9l15.22,-2.41s9.62,12.82 -7.61,31.65l-10.42,63.7s1.2,21.23 -2.4,37.26s-9.22,65.3 -9.22,65.3s-18.42,-6.81 -28.44,-5.61l15.22,-147.79l27.65,-42.1z" fill="#3f3d56" id="svg_44" transform="translate(-59.5 -29.75)"/>
  <path d="m370.68,317s-8.42,-50.48 -22.84,-31.65s1.6,44.87 1.6,44.87l21.24,-13.22z" fill="#a0616a" id="svg_45" transform="translate(-59.5 -29.75)"/>
  <circle cx="451.2" cy="257.43" fill="#a0616a" id="svg_46" r="32.45"/>
  <path d="m536.64,252.17a22.92,22.92 0 0 1 -2,-2.93c-1.95,-2.86 -5,-4.73 -8,-6.41c-5.49,-3 -11.75,-5.82 -17.86,-4.36c-4.23,1 -7.82,4 -12.08,4.86s-9.32,-0.09 -12.19,3.11s-1.6,8.24 -4.07,11.55c-1.37,1.83 -3.91,3.51 -3.22,5.69c0.29,0.92 1.14,1.57 1.53,2.46c0.69,1.56 -0.16,3.35 -0.2,5.06c-0.05,2.53 1.68,4.7 2.9,6.92s1.88,5.32 0,7.06a98,98 0 0 1 20.76,-12.73a6.14,6.14 0 0 1 -0.78,2.93a96.62,96.62 0 0 0 11.91,-2.53l-2.06,3.95l8.84,-3.86c2.39,-1.05 5.39,-2 7.43,-0.4a6.72,6.72 0 0 1 1.9,3.31a43.94,43.94 0 0 1 2.06,11.15c0.22,4.28 0,9 2.77,12.27a8.33,8.33 0 0 0 12.17,-0.08c0.78,-3 -0.39,-6.1 -0.45,-9.18c-0.09,-4.49 2.17,-8.71 2.58,-13.18c0.53,-5.65 -2.81,-9 -4.33,-14c-0.59,-1.92 -0.23,-4.19 -1.36,-6c-1.46,-2.24 -4.44,-2.74 -6.25,-4.66z" fill="#3f3d56" id="svg_47" transform="translate(-59.5 -29.75)"/>
  <path d="m348.05,343.69l11.57,-19.43l-9.44,-5.62c2.24,-2.62 10,-11.78 12.07,-16.06c0,0 11.52,-9.36 13.87,-21.48c0,0 3.12,2.94 5.9,-0.82s14.3,-10.4 5.19,-19.61l0.73,-3.73a9,9 0 0 0 3.55,-3.46c2,-3.31 1.77,-7 -0.43,-8.36s-5.59,0.3 -7.56,3.61a8.81,8.81 0 0 0 -1.32,5.26l-2.63,3.2s-9.52,-9.45 -15.9,12.16c0,0 -0.7,3.91 1.3,5.1c0,0 -9.76,13.65 -10.85,20c0,0 -8.4,12.3 -8.47,16l-2.38,4l-10,-5.94l-11.76,19.77c-5.81,-1.87 -10.15,-2 -11.35,0c-2.1,3.53 6.2,12.35 18.55,19.7s24.05,10.44 26.15,6.92c1.35,-2.17 -1.46,-6.49 -6.79,-11.21z" fill="#50b83c" id="svg_48" transform="translate(-59.5 -29.75)"/>
  <path d="m387.81,251a9.08,9.08 0 0 1 -3.54,3.47l-0.74,3.72c9.12,9.21 -2.41,15.86 -5.19,19.62a3.76,3.76 0 0 1 -5.89,0.81c-2.35,12.12 -13.87,21.48 -13.87,21.48c-2.09,4.29 -9.83,13.45 -12.07,16.06l3.59,2.14c2.24,-2.61 10,-11.78 12.07,-16.06c0,0 11.52,-9.36 13.87,-21.48c0,0 3.12,2.94 5.9,-0.82s14.3,-10.4 5.19,-19.61l0.73,-3.73a9,9 0 0 0 3.54,-3.46c2,-3.3 1.78,-7 -0.42,-8.36a3.48,3.48 0 0 0 -2.18,-0.43a7.86,7.86 0 0 1 -0.99,6.65z" id="svg_49" opacity="0.1" transform="translate(-59.5 -29.75)"/>
  <path d="m348,343.37l11.57,-19.43l-3.57,-2.14l-11.57,19.43c5.33,4.73 8.13,9 6.81,11.26c-2,3.35 -12.69,0.71 -24.35,-5.87c0.59,0.36 1.18,0.73 1.79,1.09c12.34,7.35 24.05,10.45 26.15,6.92c1.27,-2.22 -1.53,-6.54 -6.83,-11.26z" id="svg_50" opacity="0.1" transform="translate(-59.5 -29.75)"/>
 </g>
</svg>