<?xml version="1.0"?>
<svg width="20" height="20" xmlns="http://www.w3.org/2000/svg" xmlns:svg="http://www.w3.org/2000/svg">

 <g class="layer">
  <title>Layer 1</title>
  <path d="m9,15.903226a0.997,0.997 0 0 1 -0.707,-0.293l-5,-5a0.999,0.999 0 0 1 0,-1.414l5,-5a0.999,0.999 0 1 1 1.414,1.414l-4.293,4.293l4.293,4.293a0.999,0.999 0 0 1 -0.707,1.707z" fill="#5C5F62" id="svg_1" transform="matrix(1, 0, 0, 1, 0, 0)"/>
  <path d="m14.64303,15.949923a0.997,0.997 0 0 1 -0.707,-0.293l-5,-5a0.999,0.999 0 0 1 0,-1.414l5,-5a0.999,0.999 0 1 1 1.414,1.414l-4.293,4.293l4.293,4.293a0.999,0.999 0 0 1 -0.707,1.707z" fill="#5C5F62" id="svg_2"/>
 </g>
</svg>